# xmcd CD database file
#
# Track frame offsets:
#	150
#	13506
#	27272
#	41473
#	55801
#	70286
#	82076
#	97012
#	110407
#	123722
#	137619
#	150915
#	164581
#	178529
#	190056
#	205321
#	219261
#	232544
#	247283
#	261395
#	273788
#	282895
#	297190
#	311333
#	325411
#	337991
#
# Disc length: 4681 seconds
#
# Revision: 0
# Processed by: cddbd v1.5.1PL0 Copyright (c) Steve Scherf et al.
# Submitted via: CDex 1.51
#
DISCID=7512471a
DTITLE=Charlie Parker - Ornithology (Proper Box 1)
DYEAR=1900
DGENRE=Jazz
TTITLE0=01-Tiny's Tempo
TTITLE1=02-I'll Alwys Love You Just The Same
TTITLE2=03-Romance Without Finance
TTITLE3=04-Red Cross
TTITLE4=05-Billie's Bounce
TTITLE5=06-Warming Up A Riff
TTITLE6=07-Now's The Time
TTITLE7=08-Thriving On A Riff
TTITLE8=09-Ko-Ko
TTITLE9=10-Moose The Mooche
TTITLE10=11-Yardbird Suite
TTITLE11=12-Ornithology
TTITLE12=13-A Night In Tunisia
TTITLE13=14-Max Is Making Wax
TTITLE14=15-Loverman
TTITLE15=16-The Gypsy
TTITLE16=17-Bebop
TTITLE17=18-This Is Always
TTITLE18=19-Dark Shadows
TTITLE19=20-Bird's Nest
TTITLE20=21-Hot Blues
TTITLE21=22-Cool Blues
TTITLE22=23-Relaxin' At Camarillo
TTITLE23=24-Cheers
TTITLE24=25-Carvin' The Bird
TTITLE25=26-Stupendous
EXTD=
EXTT0=
EXTT1=
EXTT2=
EXTT3=
EXTT4=
EXTT5=
EXTT6=
EXTT7=
EXTT8=
EXTT9=
EXTT10=
EXTT11=
EXTT12=
EXTT13=
EXTT14=
EXTT15=
EXTT16=
EXTT17=
EXTT18=
EXTT19=
EXTT20=
EXTT21=
EXTT22=
EXTT23=
EXTT24=
EXTT25=
PLAYORDER=
